<svg width="100%" height="auto" version="1.1" xmlns="http://www.w3.org/2000/svg" desc="Created with imagetracer.js version 1.2.6" preserveAspectRatio="xMidYMid meet" viewBox="0 0 1024 1024" style="max-width: 100%; max-height: 70vh;"><path fill="rgb(0,0,0)" stroke="rgb(0,0,0)" stroke-width="1" opacity="1" d="M 732.5 81 L 741.5 81 L 751 88.5 Q 754.1 92.9 753 101.5 L 745 125.5 L 737 156.5 L 734 163.5 L 657 430.5 L 650.5 442 L 645.5 445 L 632.5 446 L 623.5 442 L 536.5 373 L 529.5 369 L 490 420.5 L 481.5 429 L 473.5 432 Q 468.3 430.3 470 421.5 L 476 400.5 L 484 358.5 L 490 347.5 L 649.5 183 L 647 186.5 L 644.5 190 L 642 191.5 L 585 250.5 L 585 252 L 582 253.5 L 556 280.5 L 556 282 Q 553.3 280.9 554 283.5 L 525 312.5 L 525 314 Q 522.3 312.9 523 315.5 L 498 340.5 L 498 342 Q 495.3 340.9 496 343.5 Q 487.9 348.9 485 359.5 L 483 373.5 L 479 387.5 L 479 392.5 L 477 396.5 L 477 400.5 L 471 422.5 L 471 427.5 L 472 430 Q 482.9 430.1 487 422.5 L 529.5 368 L 543.5 377 L 625.5 442 L 629.5 444 L 638.5 445 L 648.5 442 L 653 437.5 L 694 300.5 L 697 286.5 L 703 269.5 L 741 135.5 L 744 128.5 Q 746.4 112.9 752 100.5 L 752 93.5 L 745.5 84 Q 741.5 81 733.5 82 L 444.5 188 L 361.5 220 L 342.5 226 L 329.5 231 L 325 234 L 321 241.5 L 321 249.5 Q 322.6 256.4 328.5 259 L 438.5 314 L 481.5 288 L 554.5 240 L 648.5 181 L 646.5 184 Q 563.4 234.4 483.5 288 L 441.5 314 L 437.5 315 L 329.5 261 L 322 254.5 Q 318.9 250.1 320 241.5 Q 321.8 234.3 327.5 231 L 732.5 81 Z "/><path fill="rgb(0,0,0)" stroke="rgb(0,0,0)" stroke-width="1" opacity="1" d="M 889.5 184 L 900 215.5 L 911 267.5 L 914 296.5 L 915 297.5 L 915 306.5 L 916 307.5 L 916 318.5 L 917 319.5 L 918 374.5 L 917 375.5 L 917 393.5 L 916 394.5 L 916 405.5 L 915 406.5 L 914 422.5 L 906 468.5 L 893 516.5 L 877 559.5 Q 833.4 660.4 757.5 729 Q 705.7 778.2 633.5 807 L 590.5 821 L 558.5 828 L 538.5 830 L 537.5 831 L 528.5 831 L 527.5 832 L 488.5 833 L 487.5 832 L 474 831.5 Q 502.7 786.7 537 747.5 Q 591.7 687.7 650 631.5 L 650 630 Q 652.7 631.1 652 628.5 Q 712.8 570.3 763 501.5 Q 798.6 453.1 825.5 396 L 826 397.5 L 802 443.5 L 765 500.5 Q 721.8 560.3 670.5 612 Q 668.3 611.3 669 613.5 L 622 660.5 L 622 662 L 619 663.5 L 617.5 666 Q 615.3 665.3 616 667.5 Q 573.8 707.8 535 751.5 Q 502.3 788.2 477 831 L 488.5 831 L 489.5 832 L 510.5 832 L 511.5 831 L 526.5 831 L 527.5 830 L 544.5 829 L 577.5 823 L 613.5 813 L 656.5 796 Q 691.2 779.7 720.5 758 Q 752.8 734.3 780 705.5 L 782 702.5 Q 841.3 641.3 877 556.5 L 894 509.5 L 904 472.5 L 913 421.5 L 914 405.5 L 915 404.5 L 915 392.5 L 916 391.5 L 916 371.5 L 917 370.5 L 917 368.5 L 916 321.5 L 915 320.5 L 915 308.5 L 914 307.5 L 914 298.5 L 913 297.5 L 911 274.5 L 904 236.5 L 896 205.5 L 889.5 187 L 884 197.5 L 866 222.5 Q 846 247 822.5 268 Q 763.2 319.4 696 362 L 693 368.5 L 674 435.5 Q 669.5 447 660.5 454 L 645.5 461 L 629.5 461 L 616.5 455 L 585.5 430 L 527 477 Q 528.1 479.7 525.5 479 Q 499.2 502.7 477 530.5 Q 457.9 554.9 444 584.5 L 432 617.5 L 427 638.5 L 425 659.5 L 424 660.5 L 424 680.5 L 423 684.5 L 424 687.5 L 424 689.5 L 423 691.5 L 424 692.5 L 424 709.5 L 425 710.5 L 425 720.5 L 426 721.5 L 427 735.5 L 433 763.5 L 442 790.5 L 442 795.5 L 434 808.5 L 393 862.5 L 366.5 901 L 364 899.5 L 355 864.5 L 339 819.5 L 327 779.5 L 318 757.5 Q 301.4 722.1 280 691.5 Q 258.5 660.5 234 632.5 L 241 638.5 L 286 698.5 L 313 744.5 L 331 787.5 L 343 828.5 L 358 870.5 L 365 900 Q 367.7 901.1 367 898.5 L 388 867.5 L 434 806.5 L 441 795.5 L 441 790.5 L 433 767.5 L 426 735.5 L 426 729.5 L 424 721.5 L 424 712.5 L 423 711.5 L 422 675.5 L 423 674.5 L 423 659.5 L 424 658.5 L 425 643.5 L 431 616.5 Q 439.5 588 453 564.5 Q 480.3 518.8 518.5 484 Q 549.7 454.2 585.5 429 L 621.5 457 Q 629.8 461.8 644.5 460 Q 660.4 456.4 668 444.5 L 674 432.5 L 693 365.5 L 697.5 360 Q 744.1 329.6 787.5 296 Q 819.4 271.4 847 242.5 L 876 207.5 L 889.5 184 Z "/><path fill="rgb(0,0,0)" stroke="rgb(0,0,0)" stroke-width="1" opacity="1" d="M 202.5 331 L 218.5 332 L 232.5 336 Q 248.3 342.7 259 354.5 Q 267.6 363.2 271 376 L 414.5 376 Q 429 369 439.5 358 L 441 363.5 L 445 401.5 L 433.5 412 L 425.5 416 L 409.5 420 L 272 420 Q 266.9 440 252.5 452 Q 242.9 460.9 229.5 466 L 211.5 470 L 198.5 470 L 183.5 467 L 173.5 463 L 154 448.5 Q 143.6 437.4 138 421.5 L 135 405.5 L 135 395.5 L 138 379.5 L 145 364.5 Q 151.5 353.5 161.5 346 L 181.5 335 L 192.5 332 L 201.5 332 L 202.5 331 Z M 206 332 L 205 333 L 194 333 L 180 337 Q 168 341 160 349 Q 149 359 142 373 L 137 389 L 137 397 L 136 398 Q 137 428 152 445 Q 160 454 171 460 L 185 466 L 201 469 L 210 469 L 227 466 Q 239 462 249 454 Q 264 442 271 422 Q 270 418 274 419 L 278 419 L 287 419 L 288 418 Q 289 421 296 419 L 298 419 L 301 418 L 303 418 L 305 419 L 319 419 L 321 419 L 370 419 L 371 418 L 377 419 L 379 419 L 404 419 L 405 418 L 420 417 Q 435 412 444 402 L 443 391 L 442 390 L 442 382 L 441 381 L 441 373 L 440 372 L 440 364 L 439 360 Q 429 371 415 377 L 272 377 L 260 358 Q 251 346 237 339 L 223 334 L 207 333 L 206 332 Z "/><path fill="rgb(0,0,0)" stroke="rgb(0,0,0)" stroke-width="1" opacity="1" d="M 823.5 395 L 823 396.5 L 807 423.5 L 765 480.5 Q 726.8 527.3 683.5 569 L 586.5 660 L 531 715.5 L 490 761.5 L 461 801.5 L 433 849.5 L 389 937.5 L 384.5 942 L 379.5 945 L 369.5 946 L 368.5 945 L 350.5 945 L 343 939.5 L 342 937.5 L 341 904.5 L 340 903.5 L 338 882.5 L 332 855.5 L 326 838 Q 295 830.4 270.5 815 Q 244.3 798.7 224 776.5 Q 194.7 744.8 180 698.5 L 175 679.5 L 172 663.5 L 172 656.5 L 171 655.5 L 171 646.5 L 170 645.5 L 170 599.5 L 171 598.5 L 171 588.5 L 172 587.5 L 173 573.5 L 178 547.5 L 189.5 512 Q 192.1 523.9 199 531.5 Q 211.1 548.4 226.5 562 L 261.5 590 L 312.5 625 Q 329.3 637.3 343 652.5 Q 362.9 673.6 375 702.5 L 382 727.5 L 383 755.5 L 382 756.5 L 381 770.5 L 374 794.5 L 365 813.5 L 357.5 824 L 355 806.5 L 347 777.5 L 339 757.5 L 327 733.5 Q 299 687 259.5 652 L 237 632.5 L 236 630.5 L 244.5 638 L 253.5 645 L 291 682.5 Q 319.1 712.9 338 752.5 L 352 789.5 L 358.5 821 L 370 801.5 L 378 778.5 L 381 763.5 L 381 755.5 L 382 754.5 L 382 737.5 L 378 714.5 L 371 695.5 L 364 682.5 Q 347.8 655.8 324.5 636 L 302.5 619 L 251.5 584 Q 226.5 565.5 206 542.5 Q 195.9 531.1 189.5 516 L 182 536.5 L 174 574.5 L 173 589.5 L 172 590.5 L 172 600.5 L 171 601.5 L 171 643.5 L 172 644.5 L 173 662.5 L 177 683.5 L 186 712.5 L 192 726.5 Q 211.3 766.7 243.5 794 Q 261.7 809.3 283.5 821 L 298.5 827 L 300.5 829 L 323.5 836 L 328 839.5 L 338 875.5 L 340 893.5 L 341 894.5 L 341 903.5 L 342 904.5 L 343 936.5 L 346.5 942 L 350.5 944 L 368.5 944 L 369.5 945 L 370.5 944 L 378.5 944 L 389 935.5 L 428 856.5 L 459 802.5 L 483 768.5 L 522 724.5 L 522 723 Q 524.7 724.1 524 721.5 L 574.5 670 L 648 601.5 Q 647.3 599.3 649.5 600 L 717 533.5 Q 777.3 471.3 823.5 395 Z "/><path fill="rgb(0,127,0)" stroke="rgb(0,127,0)" stroke-width="1" opacity="1" d="M 733.5 82 Q 743.8 80.7 747.5 86 L 749 85.5 L 749 87.5 L 751.5 93 L 753 92.5 L 750 107.5 L 750.5 109 L 749 108.5 L 746 121.5 L 746.5 123 L 745 122.5 L 746 125.5 L 744 125.5 L 743 131.5 L 743.5 133 L 742 132.5 L 741 138.5 L 741.5 140 L 740 139.5 L 739 145.5 L 739.5 147 L 738 146.5 L 737 152.5 L 737.5 154 L 736 153.5 L 734 162.5 L 734.5 164 L 733 163.5 L 732 169.5 L 732.5 171 L 731 170.5 L 730 176.5 L 730.5 178 L 729 177.5 L 728 183.5 L 728.5 185 L 727 184.5 L 728 187.5 L 726 187.5 L 725 193.5 L 725.5 195 L 724 194.5 L 723 200.5 L 723.5 202 L 722 201.5 L 721 207.5 L 721.5 209 L 720 208.5 L 718 217.5 L 718.5 219 L 717 218.5 L 716 224.5 L 716.5 226 L 715 225.5 L 711 241.5 L 711.5 243 L 710 242.5 L 709 248.5 L 709.5 250 L 708 249.5 L 707 255.5 L 707.5 257 L 706 256.5 L 704 265.5 L 704.5 267 L 703 266.5 L 702 272.5 L 702.5 274 L 701 273.5 L 700 279.5 L 700.5 281 L 699 280.5 L 696 293.5 L 696.5 295 L 695 294.5 L 696 297.5 L 694 297.5 L 693 303.5 L 693.5 305 L 692 304.5 L 691 310.5 L 691.5 312 L 690 311.5 L 688 320.5 L 688.5 322 L 687 321.5 L 686 327.5 L 686.5 329 L 685 328.5 L 683 337.5 L 683.5 339 L 682 338.5 L 683 342.5 L 681 342.5 L 679 351.5 L 679.5 353 L 678 352.5 L 676 361.5 L 676.5 363 L 675 362.5 L 674 368.5 L 674.5 370 L 673 369.5 L 672 375.5 L 672.5 377 L 671 376.5 L 669 385.5 L 669.5 387 L 668 386.5 L 662 409.5 L 662.5 411 L 661 410.5 L 659 419.5 L 659.5 421 L 658 420.5 L 657 426.5 L 657.5 428 L 656 427.5 Q 655.2 437.2 649 441.5 L 649.5 443 L 647.5 442 L 644.5 444 L 635.5 445 Q 634.3 442.8 629.5 444 L 620.5 438 L 619 438.5 Q 621.8 436.8 617.5 435 L 615.5 434 L 614 434.5 Q 616.2 433.3 613.5 432 L 606.5 427 L 605 427.5 Q 607.3 426.2 604.5 425 L 601.5 423 L 600 423.5 Q 602.3 422.2 599.5 421 L 597.5 420 L 596 420.5 Q 598.8 418.8 594.5 417 L 592.5 416 L 591 416.5 Q 593.8 414.7 589.5 413 L 587.5 412 L 586 412.5 Q 588.3 411.2 585.5 410 L 583.5 409 L 582 409.5 Q 584.7 407.7 580.5 406 L 578.5 405 L 577 405.5 Q 579.7 403.7 575.5 402 L 569.5 398 L 568 398.5 Q 570.8 396.7 566.5 395 L 564.5 394 L 563 394.5 Q 565.8 392.8 561.5 391 L 559.5 392 Q 561.2 390 557.5 388 L 555.5 387 L 554 387.5 Q 556.3 386.2 553.5 385 L 546.5 380 L 545 380.5 Q 547.8 378.8 543.5 377 L 537.5 373 L 536 373.5 Q 538.3 372.2 535.5 371 L 533.5 370 L 532 370.5 L 532.5 369 L 529.5 368 L 528.5 371 Q 526.8 368.3 525 372.5 L 521 378.5 L 521.5 380 Q 520.3 377.8 519 380.5 L 514 387.5 L 514.5 389 Q 512.8 386.3 511 390.5 L 510 392.5 L 510.5 394 Q 509.3 391.8 508 394.5 L 507 396.5 L 507.5 398 Q 506.3 395.8 505 398.5 L 500 405.5 L 500.5 407 Q 499.3 404.8 498 407.5 L 493 414.5 L 493.5 416 Q 491.8 413.3 490 417.5 L 485 424.5 Q 487.3 425.8 484.5 427 Q 483 424.5 481.5 428 L 480 428.5 L 480.5 430 L 478.5 429 L 471.5 431 L 472 429.5 L 471 422.5 Q 473.6 419.6 473 413.5 L 472.5 412 L 474 412.5 L 473 408.5 L 475 408.5 L 474 404.5 L 476 404.5 L 475 400.5 L 477 400.5 L 479 387.5 L 478.5 386 L 480 386.5 L 483 373.5 L 483 368.5 L 482.5 367 L 484 367.5 L 486 356.5 L 485.5 355 L 487 355.5 L 490 349.5 L 489.5 348 L 490.5 349 L 496 343.5 L 498 340.5 L 507 331.5 Q 504.7 330.3 507.5 329 L 508.5 330 L 523 315.5 L 525 312.5 L 534 303.5 L 533 302.5 L 537.5 298 L 538.5 299 L 554 283.5 L 556 280.5 L 564 272.5 L 563 271.5 L 567.5 267 L 568.5 268 L 582 254.5 L 583.5 252 Q 585.8 252.8 585 250.5 L 594 241.5 L 593 240.5 L 597.5 236 L 598.5 237 L 616 219.5 L 624 210.5 L 623 209.5 L 627.5 205 L 628.5 206 L 642 192.5 L 643.5 190 L 647 187.5 L 650 183.5 L 648.5 181 L 640 186.5 L 640.5 188 L 638.5 187 L 624 196.5 L 624.5 198 L 622.5 197 L 613 203.5 L 613.5 205 L 611.5 204 L 605 208.5 L 605.5 210 L 603.5 210 L 597 213.5 L 597.5 215 L 595.5 215 L 594 215.5 L 594.5 217 L 592.5 216 L 583 222.5 L 583.5 224 L 581.5 223 L 575 227.5 L 575.5 229 L 573.5 229 L 572 229.5 L 572.5 231 L 570.5 230 L 564 234.5 L 564.5 236 L 562.5 236 L 561 236.5 L 561.5 238 L 559.5 237 L 550 243.5 L 550.5 245 L 548.5 244 L 536 252.5 L 536.5 254 L 534.5 254 L 533 254.5 L 533.5 256 L 531.5 255 L 519 263.5 L 519.5 265 L 517.5 264 L 516.5 267 L 514.5 266 L 502 274.5 L 502.5 276 L 500.5 275 L 491 281.5 L 491.5 283 L 489.5 282 L 488.5 285 L 486.5 284 L 480 288.5 L 480.5 290 L 478.5 289 L 472 293.5 L 472.5 295 L 470.5 294 L 464 298.5 L 464.5 300 L 462.5 300 L 456 303.5 L 456.5 305 L 454.5 304 L 448 308.5 L 448.5 310 L 446.5 309 L 443 311.5 L 443.5 313 L 441.5 312 L 438.5 314 L 328.5 259 L 327 259.5 L 328 258.5 L 322 252.5 L 321.5 250 L 320 250.5 L 321 249.5 L 321 241.5 L 320.5 240 L 322 240.5 L 325 234 L 334 229.5 L 333.5 228 L 336.5 229 L 336.5 227 L 339.5 228 L 345 225.5 L 344.5 224 L 347.5 225 L 353 222.5 L 352.5 221 L 355.5 222 L 372 215.5 L 371.5 214 L 374.5 215 L 393 207.5 L 392.5 206 L 395.5 207 L 404 203.5 L 403.5 202 L 406.5 203 L 412 200.5 L 411.5 199 L 414.5 200 L 420 197.5 L 419.5 196 L 422.5 197 L 422.5 195 L 425.5 196 L 428 194.5 L 427.5 193 L 430.5 194 L 430.5 192 L 433.5 193 L 439 190.5 L 438.5 189 L 441.5 190 L 447 187.5 L 446.5 186 L 449.5 187 L 455 184.5 L 454.5 183 L 457.5 184 L 466 180.5 L 465.5 179 L 468.5 180 L 474 177.5 L 473.5 176 L 476.5 177 L 485 173.5 L 484.5 172 L 487.5 173 L 487.5 171 L 490.5 172 L 496 169.5 L 495.5 168 L 498.5 169 L 504 166.5 L 503.5 165 L 506.5 166 L 506.5 164 L 509.5 165 L 515 162.5 L 514.5 161 L 517.5 162 L 526 158.5 L 525.5 157 L 528.5 158 L 537 154.5 L 536.5 153 L 539.5 154 L 556 147.5 L 555.5 146 L 558.5 147 L 564 144.5 L 563.5 143 L 566.5 144 L 575 140.5 L 574.5 139 L 577.5 140 L 586 136.5 L 585.5 135 L 588.5 136 L 594 133.5 L 593.5 132 L 596.5 133 L 596.5 131 L 599.5 132 L 605 129.5 L 604.5 128 L 607.5 129 L 613 126.5 L 612.5 125 L 615.5 126 L 624 122.5 L 623.5 121 L 626.5 122 L 632 119.5 L 631.5 118 L 634.5 119 L 643 115.5 L 642.5 114 L 645.5 115 L 654 111.5 L 653.5 110 L 656.5 111 L 662 108.5 L 661.5 107 L 664.5 108 L 681 101.5 L 680.5 100 L 683.5 101 L 689 98.5 L 688.5 97 L 691.5 98 L 691.5 96 L 694.5 97 L 700 94.5 L 699.5 93 L 702.5 94 L 708 91.5 L 707.5 90 L 710.5 91 L 716 88.5 L 715.5 87 L 718.5 88 L 727 84.5 L 726.5 83 L 729.5 84 L 733.5 82 Z "/><path fill="rgb(0,127,0)" stroke="rgb(0,127,0)" stroke-width="1" opacity="1" d="M 889.5 187 L 895.5 205 L 897 204.5 L 896 208.5 L 901.5 228 L 903 227.5 L 902 231.5 L 904 231.5 L 903 235.5 L 905 235.5 L 904 240.5 L 906 240.5 L 905 245.5 L 910.5 274 L 912 273.5 Q 909.3 275.2 911 281.5 L 912 282.5 L 914 307.5 L 915 308.5 L 915 320.5 L 916 321.5 L 917 368.5 L 916 371.5 L 916 391.5 L 915 392.5 L 915 404.5 L 914 405.5 L 911 436.5 L 911.5 438 L 910 437.5 L 904 472.5 L 904.5 474 L 903 473.5 L 904 477.5 L 902 477.5 L 903 481.5 L 901 481.5 L 902 485.5 L 900 485.5 L 897 499.5 L 897.5 501 L 896 500.5 L 894 509.5 L 894.5 511 L 893 510.5 L 894 513.5 L 892 513.5 L 887 530.5 L 887.5 532 L 886 531.5 L 884 538.5 L 884.5 540 L 883 539.5 L 881 546.5 L 881.5 548 L 880 547.5 L 879 551.5 L 879.5 553 L 878 552.5 L 873 565.5 L 873.5 567 L 872 566.5 L 873 568.5 L 871 568.5 L 865 582.5 L 865.5 584 L 864 583.5 L 865 585.5 L 863 585.5 L 864 587.5 L 862 587.5 L 863 589.5 L 861 589.5 L 862 591.5 L 860 591.5 L 853 605.5 L 853.5 607 L 852 606.5 L 845 619.5 L 845.5 621 L 844 620.5 L 842 624.5 L 842.5 626 Q 841.2 623.8 840 626.5 L 837 632.5 L 837.5 634 L 836 633.5 L 829 644.5 L 829.5 646 L 828 645.5 L 825 650.5 L 825.5 652 L 824 651.5 L 820 657.5 L 820.5 659 Q 819.3 656.8 818 659.5 L 814 665.5 L 814.5 667 Q 813.3 664.8 812 667.5 L 811 669.5 L 811.5 671 Q 809.8 668.2 808 672.5 L 807 674.5 L 807.5 676 Q 805.8 673.3 804 677.5 L 803 679.5 Q 805.3 680.8 802.5 682 Q 801.3 679.8 800 682.5 L 790 694.5 L 790.5 696 L 789.5 695 L 782 702.5 L 780 705.5 L 756 728.5 L 756.5 730 L 755.5 729 L 751.5 733 L 747 736.5 L 747.5 738 L 745.5 738 L 741 741.5 L 741.5 743 Q 740 740.5 738.5 744 L 735 746.5 L 735.5 748 L 733.5 748 L 730 750.5 L 730.5 752 L 728.5 751 Q 724.8 753 726.5 755 L 724.5 755 L 722 756.5 L 722.5 758 L 720.5 758 L 715 761.5 L 715.5 763 L 713.5 763 L 689 778.5 L 689.5 780 L 687.5 779 L 682 782.5 L 682.5 784 L 680.5 783 L 671 788.5 L 671.5 790 L 669.5 789 L 669.5 791 L 667.5 790 L 665 791.5 L 665.5 793 L 663.5 792 L 663.5 794 L 661.5 793 L 661.5 795 L 659.5 794 L 659.5 796 L 657.5 795 L 650 798.5 L 650.5 800 L 648.5 799 L 643 801.5 L 643.5 803 L 641.5 802 L 628 807.5 L 628.5 809 L 625.5 808 L 625.5 810 L 622.5 809 L 613.5 813 L 594 818.5 L 594.5 820 L 590.5 819 L 569 824.5 L 569.5 826 L 564.5 825 L 564.5 827 Q 563.3 824.7 558.5 826 L 551.5 828 L 527.5 830 L 526.5 831 L 489.5 832 L 488.5 831 L 477 831 L 489 811.5 L 488.5 810 L 490 810.5 L 491 808.5 L 490.5 807 Q 491.8 809.3 493 806.5 L 498 798.5 L 497.5 797 Q 498.7 799.3 500 796.5 L 501 794.5 L 500.5 793 Q 501.7 795.3 503 792.5 L 504 790.5 L 503.5 789 Q 504.7 791.3 506 788.5 L 507 786.5 L 506.5 785 Q 507.7 787.3 509 784.5 L 510 782.5 L 509.5 781 Q 510.7 783.3 512 780.5 L 526 762.5 L 525.5 761 L 526.5 762 L 530 758.5 L 531 756.5 L 530.5 755 L 531.5 756 L 535 752.5 L 537 749.5 L 536.5 748 L 537.5 749 L 542 744.5 L 546 739.5 Q 543.8 738.3 546.5 737 L 547.5 738 L 554 731.5 L 559 725.5 Q 556.8 724.3 559.5 723 L 560.5 724 L 570 714.5 L 579 704.5 L 578 703.5 L 582.5 699 L 583.5 700 L 616 667.5 Q 615.3 665.3 617.5 666 L 620.5 662 Q 622.8 662.8 622 660.5 L 645 637.5 L 644 636.5 L 649.5 631 Q 650.8 633.3 652 630.5 L 651.5 629 L 652.5 630 L 669 613.5 Q 668.3 611.3 670.5 612 L 680 601.5 Q 677.8 600.3 680.5 599 L 681.5 600 L 690 591.5 L 695 585.5 Q 692.8 584.3 695.5 583 L 696.5 584 L 701 579.5 L 705 574.5 L 704.5 573 L 705.5 574 L 710 569.5 L 733 541.5 L 732.5 540 Q 734.3 542.8 736 538.5 L 737 536.5 L 736.5 535 Q 738.3 537.8 740 533.5 L 741 531.5 L 740.5 530 Q 742.3 532.8 744 528.5 L 745 526.5 L 744.5 525 Q 745.8 527.3 747 524.5 L 760 506.5 L 759.5 505 Q 760.8 507.3 762 504.5 L 763 502.5 L 762.5 501 Q 763.8 503.3 765 500.5 L 786 468.5 L 785.5 467 Q 786.8 469.3 788 466.5 L 793 457.5 L 792.5 456 L 794 456.5 L 796 452.5 L 795.5 451 L 797 451.5 L 799 447.5 L 798.5 446 L 800 446.5 L 803 440.5 L 802.5 439 L 804 439.5 L 810 427.5 L 809.5 426 L 811 426.5 L 826 396.5 L 823.5 395 L 820 400.5 L 820.5 402 L 819 401.5 L 814 410.5 L 814.5 412 L 813 411.5 L 812 413.5 L 812.5 415 L 811 414.5 L 810 416.5 L 810.5 418 L 809 417.5 L 804 425.5 L 804.5 427 Q 803.2 424.8 802 427.5 L 803 429.5 L 800 430.5 L 795 438.5 L 795.5 440 L 794 439.5 L 793 441.5 L 793.5 443 Q 792.3 440.8 791 443.5 L 788 448.5 L 788.5 450 Q 786.8 447.2 785 451.5 L 779 460.5 L 779.5 462 Q 778.2 459.8 777 462.5 L 776 464.5 L 776.5 466 Q 775.3 463.8 774 466.5 L 765 478.5 L 765.5 480 Q 763.8 477.2 762 481.5 L 760 484.5 L 760.5 486 Q 758.8 483.3 757 487.5 L 750 496.5 L 750.5 498 L 749.5 497 L 746 500.5 L 744 503.5 L 744.5 505 L 743.5 504 L 740 507.5 L 727 522.5 Q 729.3 523.8 726.5 525 L 725.5 524 L 717 532.5 L 711 539.5 Q 713.7 541.3 709.5 543 L 708.5 542 L 682 568.5 L 683 569.5 L 678.5 574 L 677.5 573 L 669.5 581 L 655 594.5 Q 657.3 595.8 654.5 597 L 653.5 596 L 649.5 600 Q 647.3 599.3 648 601.5 L 637 611.5 Q 639.8 613.3 635.5 615 L 634.5 614 L 629.5 619 L 620 627.5 Q 622.8 629.2 618.5 631 L 617.5 630 L 611.5 636 L 604 642.5 Q 606.7 644.3 602.5 646 L 601.5 645 L 597.5 649 L 586 659.5 L 587 660.5 L 583.5 664 L 582.5 663 L 575.5 670 L 538 706.5 L 532 713.5 Q 534.3 714.8 531.5 716 L 530.5 715 L 524 721.5 L 522 724.5 Q 517.7 726.8 519.5 729 L 518.5 728 L 512 734.5 L 508 739.5 L 508.5 741 L 507.5 740 L 503 744.5 L 501 747.5 L 501.5 749 L 500.5 748 L 497 751.5 L 495 754.5 L 495.5 756 L 494.5 755 L 491 758.5 L 479 774.5 L 479.5 776 Q 478.2 773.8 477 776.5 L 469 788.5 L 469.5 790 Q 468.3 787.8 467 790.5 L 468 792.5 L 465 793.5 L 461 800.5 L 461.5 802 Q 460.3 799.8 459 802.5 L 454 811.5 L 454.5 813 L 453 812.5 L 451 816.5 L 451.5 818 L 450 817.5 L 443 830.5 L 443.5 832 L 442 831.5 L 439 837.5 L 439.5 839 L 438 838.5 L 433 848.5 L 433.5 850 L 432 849.5 L 433 851.5 L 431 851.5 L 424 865.5 L 424.5 867 L 423 866.5 L 424 868.5 L 422 868.5 L 423 870.5 L 421 870.5 L 394 925.5 L 394.5 927 L 393 926.5 L 394 928.5 L 392 928.5 L 393 930.5 L 391 930.5 L 392 932.5 L 390 932.5 L 391 934.5 L 389 934.5 L 383 941.5 L 383.5 943 L 381.5 942 L 378.5 944 L 370.5 944 Q 369.7 946.8 365.5 946 L 365.5 945 L 369 944.5 L 350.5 944 L 349 944.5 L 349.5 943 L 346.5 942 Q 345.3 944.2 344 941.5 L 344 939.5 L 343 936.5 L 343 917.5 L 342 916.5 L 341.5 904 L 340.5 906 L 340 904.5 L 341 903.5 L 341 894.5 L 336.5 871 L 335 871.5 L 336 866.5 L 332.5 855 L 331 855.5 L 332 851.5 L 328 839.5 L 325.5 837 L 323.5 838 L 323.5 836 L 314.5 834 L 313 834.5 L 313.5 833 L 308.5 832 L 307 832.5 L 307.5 831 L 303.5 830 L 302 830.5 L 302.5 829 L 296.5 827 L 295 827.5 L 295.5 826 L 276.5 817 L 275 817.5 L 275.5 816 L 266.5 811 L 265 811.5 Q 267.3 810.3 264.5 809 L 262.5 810 L 261.5 807 L 256.5 804 L 255 804.5 Q 257.3 803.2 254.5 802 L 252.5 801 L 251 801.5 Q 253.7 799.8 249.5 798 L 247.5 797 L 246 797.5 Q 248.7 795.8 244.5 794 L 240.5 791 L 239 791.5 L 240 790.5 L 224.5 775 Q 223.3 777.3 222 774.5 L 222 772.5 L 218.5 768 L 217 768.5 L 217 766.5 L 209.5 756 L 208 756.5 L 208 754.5 L 207.5 753 L 206 753.5 L 206 751.5 L 200.5 742 L 199 742.5 L 200 740.5 L 193.5 729 L 192 729.5 L 193 727.5 L 186.5 713 L 185 713.5 L 186 710.5 L 180.5 695 L 179 695.5 L 180 691.5 L 177.5 684 L 176 684.5 L 177 679.5 L 174 668.5 L 173 655.5 L 172 654.5 L 172 644.5 L 171 643.5 L 171 601.5 L 172 600.5 L 173 581.5 L 178 552.5 L 177.5 551 L 179 551.5 L 184 529.5 L 183.5 528 L 185 528.5 L 184 525.5 L 186 525.5 L 185 522.5 L 187 522.5 L 186 519.5 L 188 519.5 L 189.5 516 L 194.5 526 L 196 525.5 L 196 527.5 L 204.5 540 L 206 539.5 L 206 541.5 L 210.5 547 L 212 546.5 L 211 547.5 L 224.5 561 Q 225.8 558.8 227 561.5 L 226 562.5 L 230.5 567 L 233.5 569 L 235 568.5 Q 232.2 570.3 236.5 572 L 248.5 581 L 250 580.5 Q 247.2 582.2 251.5 584 L 256.5 587 L 258 586.5 Q 255.8 587.8 258.5 589 L 260.5 590 L 262 589.5 Q 259.8 590.8 262.5 592 L 267.5 595 L 269 594.5 Q 266.8 595.8 269.5 597 L 277.5 602 L 279 601.5 L 278.5 603 L 280.5 604 L 282 603.5 Q 279.8 604.8 282.5 606 L 293.5 613 L 295 612.5 Q 292.8 613.8 295.5 615 L 297.5 614 L 298.5 617 L 303.5 620 L 305 619.5 Q 302.8 620.8 305.5 622 L 315.5 629 L 317 628.5 Q 314.8 629.8 317.5 631 L 320.5 633 L 322 632.5 Q 319.3 634.2 323.5 636 L 342.5 654 L 344 653.5 L 343 654.5 L 346 657.5 L 352.5 666 L 354 665.5 L 353 667.5 L 357.5 673 L 359 672.5 L 359 674.5 L 359.5 676 L 361 675.5 L 360 677.5 L 363 678.5 L 362 680.5 L 364.5 684 L 366 683.5 L 365 685.5 L 372.5 700 L 374 699.5 L 373 701.5 L 374.5 705 L 376 704.5 L 375 707.5 L 377 707.5 L 376 710.5 L 378 710.5 L 377 713.5 L 379 713.5 L 378 717.5 L 380 717.5 L 379 722.5 L 382 737.5 L 382 754.5 L 381 755.5 L 381 763.5 L 379 774.5 L 379.5 776 L 378 775.5 L 379 779.5 L 377 779.5 L 371 798.5 L 371.5 800 L 370 799.5 Q 366.7 810.7 360 818.5 L 360.5 820 L 359 819.5 L 358.5 821 L 356.5 811 L 355 811.5 Q 357.3 810.3 356 805.5 L 352.5 793 L 351 793.5 L 352 789.5 L 350.5 786 L 349 786.5 L 350 783.5 L 348 783.5 L 349 780.5 L 347 780.5 L 348 777.5 L 346 777.5 L 347 774.5 L 342.5 764 L 341 764.5 L 342 762.5 L 339.5 757 L 338 757.5 L 339 755.5 L 327.5 733 L 326 733.5 L 327 731.5 L 321.5 723 L 320 723.5 L 321 721.5 L 318 720.5 L 319 718.5 L 316 717.5 L 317 715.5 L 314 714.5 L 314 712.5 L 312.5 710 L 311 710.5 L 312 708.5 L 303.5 698 L 302 698.5 Q 304.5 697 301 695.5 L 293.5 686 Q 292.3 688.3 291 685.5 L 291 683.5 L 284.5 676 Q 282.8 678.8 281 674.5 L 282 673.5 L 263.5 655 L 262.5 656 L 259 652.5 L 260 651.5 L 253.5 645 L 241.5 635 Q 240.3 637.3 239 634.5 Q 241.8 632.8 237.5 631 Q 232.3 633.8 238 636.5 L 240.5 640 L 242 639.5 Q 239.5 641 243 642.5 L 244.5 645 L 246 644.5 L 246 646.5 L 248.5 650 L 250 649.5 L 250 651.5 L 252.5 655 L 254 654.5 L 254 656.5 L 259.5 664 L 261 663.5 L 260 665.5 Q 262 669.2 264 667.5 L 264 669.5 L 265.5 672 L 267 671.5 L 267 673.5 L 273.5 683 L 275 682.5 L 275 684.5 L 280.5 693 L 282 692.5 L 281 694.5 L 284 695.5 L 284 697.5 L 286.5 702 L 288 701.5 L 288 703.5 L 288.5 705 L 290 704.5 L 290 706.5 L 299.5 723 L 301 722.5 L 300 724.5 L 303.5 730 L 305 729.5 L 304 731.5 L 309.5 741 L 311 740.5 L 310 742.5 L 312 742.5 L 311 744.5 L 312.5 747 L 314 746.5 L 313 748.5 L 315 748.5 L 314 750.5 L 319.5 762 L 321 761.5 L 320 763.5 L 322.5 769 L 324 768.5 L 323 771.5 L 327.5 782 L 329 781.5 L 328 784.5 L 330 784.5 L 329 787.5 L 332.5 797 L 334 796.5 L 333 799.5 L 335 799.5 L 334 802.5 L 338.5 816 L 340 815.5 L 339 819.5 L 342.5 829 L 344 828.5 L 343 831.5 L 344.5 835 L 346 834.5 L 345 837.5 L 347 837.5 L 346 840.5 L 347.5 844 L 349 843.5 L 348 846.5 L 357.5 874 L 359 873.5 L 358 877.5 L 360.5 885 L 362 884.5 L 361 888.5 L 363 888.5 L 362 892.5 L 364 892.5 L 363 896.5 L 365.5 901 L 369 898.5 L 368 896.5 L 371 895.5 L 381 879.5 L 380.5 878 Q 381.8 880.3 383 877.5 L 386 872.5 L 385.5 871 Q 386.8 873.3 388 870.5 L 421 825.5 L 420.5 824 Q 421.8 826.3 423 823.5 L 424 821.5 L 423.5 820 Q 424.8 822.2 426 819.5 L 429 814.5 L 428.5 813 Q 429.8 815.2 431 812.5 L 434 807.5 L 433.5 806 Q 434.7 808.3 436 805.5 L 435 803.5 L 438 802.5 L 437 800.5 L 440 799.5 L 439 797.5 L 441 797.5 L 442 790.5 L 440.5 787 L 439 787.5 L 440 784.5 L 438 784.5 L 439 781.5 L 437 781.5 L 438 778.5 L 436 778.5 L 437 775.5 L 435.5 771 L 434 771.5 L 435 767.5 L 433.5 764 L 432 764.5 L 433 760.5 L 431 760.5 L 432 756.5 L 430 756.5 L 431 751.5 L 427.5 736 L 426 736.5 Q 428.5 735 427 729.5 L 425 729.5 Q 427.8 727.8 426 721.5 L 425 720.5 L 424 692.5 L 423 691.5 L 424 689.5 L 424 687.5 L 423 681.5 L 424 680.5 L 424 660.5 L 425 659.5 L 427 638.5 L 432 617.5 L 438 599.5 L 437.5 598 L 439 598.5 L 442 589.5 L 441.5 588 L 443 588.5 L 446 580.5 L 445.5 579 L 447 579.5 L 446 577.5 L 448 577.5 L 447 575.5 L 449 575.5 L 448 573.5 L 450 573.5 L 449 571.5 L 451 571.5 L 455 563.5 L 454.5 562 L 456 562.5 L 458 558.5 L 457.5 557 L 459 557.5 L 463 550.5 L 462.5 549 Q 463.7 551.3 465 548.5 L 464 546.5 L 466 546.5 L 467 544.5 L 466.5 543 Q 467.8 545.3 469 542.5 L 472 537.5 L 471.5 536 Q 472.8 538.3 474 535.5 L 475 533.5 L 474.5 532 Q 475.8 534.3 477 531.5 L 479 528.5 L 478.5 527 Q 480.3 529.7 482 525.5 L 483 523.5 L 482.5 522 Q 484.2 524.8 486 520.5 L 489 516.5 L 488.5 515 L 489.5 516 L 494 511.5 L 497 507.5 Q 494.8 506.3 497.5 505 L 498.5 506 L 520 484.5 L 519.5 483 L 520.5 484 L 525.5 479 L 528.5 477 L 532 473.5 Q 529.8 472.3 532.5 471 L 533.5 472 L 536.5 469 L 547 460.5 L 546.5 459 L 548.5 459 L 553 455.5 L 552.5 454 L 554.5 454 L 563 447.5 L 562.5 446 L 564.5 446 L 568 443.5 L 567.5 442 L 569.5 442 L 585 430.5 L 584.5 429 L 587 429.5 Q 584.8 430.8 587.5 432 L 594.5 437 L 596 436.5 Q 593.3 438.2 597.5 440 L 608.5 448 L 610 447.5 Q 607.2 449.2 611.5 451 L 613.5 452 L 615 451.5 Q 612.3 453.3 616.5 455 L 620.5 457 L 622 456.5 L 621.5 458 Q 629.8 463.2 645.5 461 Q 659.4 457.4 667 447.5 L 668 445.5 L 667.5 444 Q 668.8 446.3 670 443.5 L 669 441.5 L 671 441.5 L 673 436.5 L 672.5 435 L 674 435.5 L 673 432.5 L 675 432.5 L 677 423.5 L 676.5 422 L 678 422.5 L 679 416.5 L 678.5 415 L 680 415.5 L 681 409.5 L 680.5 408 L 682 408.5 L 683 402.5 L 682.5 401 L 684 401.5 L 683 398.5 L 685 398.5 L 686 392.5 L 685.5 391 L 687 391.5 L 691 375.5 L 690.5 374 L 692 374.5 L 693 368.5 L 692.5 367 L 694 367.5 L 696 362 L 699 360.5 L 698.5 359 L 700.5 360 L 701.5 357 L 703.5 357 L 712 351.5 L 711.5 350 L 713.5 351 L 714.5 348 L 716.5 348 L 725 342.5 L 724.5 341 L 726.5 342 L 735 335.5 L 734.5 334 L 736.5 335 L 742 330.5 L 741.5 329 L 743.5 330 L 756 320.5 L 755.5 319 L 757.5 319 L 763 315.5 L 762.5 314 L 764.5 314 L 767 312.5 L 766.5 311 L 768.5 311 L 771 309.5 L 770.5 308 L 772.5 308 L 775 306.5 L 774.5 305 L 776.5 305 L 788 296.5 L 787.5 295 L 789.5 295 L 793 292.5 L 792.5 291 L 794.5 291 L 798 288.5 L 797.5 287 L 799.5 287 L 804 283.5 L 803.5 282 Q 805 284.5 806.5 281 L 810 278.5 L 809.5 277 L 810.5 278 L 813.5 275 L 817 272.5 Q 814.8 271.3 817.5 270 L 818.5 271 L 821.5 268 L 829 261.5 Q 826.8 260.3 829.5 259 L 830.5 260 L 847 243.5 L 846.5 242 L 847.5 243 L 854 236.5 L 857 232.5 L 856.5 231 L 857.5 232 L 861 228.5 L 863 225.5 L 862.5 224 Q 864.3 226.7 866 222.5 L 867 220.5 L 866.5 219 Q 868.2 221.8 870 217.5 L 876 208.5 L 875.5 207 Q 876.8 209.3 878 206.5 L 877 204.5 L 880 203.5 L 879 201.5 L 882 200.5 L 881 198.5 L 884 197.5 L 889.5 187 Z "/><path fill="rgb(0,127,0)" stroke="rgb(0,127,0)" stroke-width="1" opacity="1" d="M 209.5 331 L 212 331.5 L 209.5 332 L 209.5 331 Z "/><path fill="rgb(0,127,0)" stroke="rgb(0,127,0)" stroke-width="1" opacity="1" d="M 205.5 332 L 206.5 333 L 222.5 334 L 224 333.5 L 223.5 335 Q 241.7 338.8 252.5 350 L 254 349.5 L 253 350.5 L 260 357.5 L 270.5 376 L 272 375.5 L 271.5 377 L 415 376.5 L 414.5 375 L 417.5 376 L 432 365.5 L 431.5 364 L 433.5 364 L 438.5 360 L 439.5 363 L 441 362.5 L 440 363.5 L 440 371.5 L 441 372.5 L 443 397.5 L 445 402.5 L 441.5 406 Q 440 403.5 438.5 407 L 423 415.5 L 423.5 417 L 420.5 416 L 420.5 418 L 416.5 417 L 415.5 418 L 404.5 418 L 403.5 419 L 378.5 419 L 376.5 419 L 370.5 418 L 369.5 419 L 320.5 419 L 318.5 419 L 304.5 419 L 302.5 418 L 300.5 418 L 297.5 419 L 295.5 419 Q 289.3 420.8 287.5 418 L 286.5 419 L 277.5 419 L 273.5 419 Q 269.8 417.8 271 421.5 Q 264.7 440.2 251 451.5 Q 253.3 452.8 250.5 454 L 248.5 454 L 240 459.5 L 240.5 461 L 238.5 460 L 232 463.5 L 232.5 465 L 229.5 464 L 226.5 466 L 217.5 468 L 200.5 469 Q 198.8 466.3 192.5 468 L 176.5 463 L 175 463.5 L 175.5 462 L 172.5 461 L 171 461.5 L 171.5 460 L 167.5 458 L 166 458.5 Q 168.3 457.3 165.5 456 L 159.5 452 L 158 452.5 L 159 451.5 L 154.5 447 L 153 447.5 Q 155.5 446 152 444.5 L 147.5 438 L 146 438.5 L 147 436.5 L 144.5 433 L 143 433.5 L 144 431.5 L 142 431.5 L 143 429.5 L 141 429.5 L 142 426.5 L 140.5 424 L 139 424.5 L 140 421.5 L 138.5 418 L 137 418.5 L 138 413.5 L 136 413.5 Q 138.8 411.7 137 405.5 Q 134.3 403.8 136 397.5 L 140 377.5 L 139.5 376 L 141 376.5 L 142 372.5 L 141.5 371 L 143 371.5 L 142 369.5 L 144 369.5 Q 149.6 357.1 159.5 349 L 163 346.5 L 162.5 345 L 164.5 346 L 169 342.5 L 168.5 341 L 170.5 342 L 179 337.5 L 178.5 336 L 181.5 337 L 188 334.5 L 187.5 333 L 192.5 334 L 193.5 333 L 204.5 333 L 205.5 332 Z "/><path fill="rgb(0,127,0)" stroke="rgb(0,127,0)" stroke-width="1" opacity="1" d="M 917.5 336 L 918 339.5 L 917 339.5 L 917.5 336 Z "/><path fill="rgb(0,127,0)" stroke="rgb(0,127,0)" stroke-width="1" opacity="1" d="M 917.5 375 L 918 377.5 L 917 377.5 L 917.5 375 Z "/><path fill="rgb(0,127,0)" stroke="rgb(0,127,0)" stroke-width="1" opacity="1" d="M 169.5 617 L 170 625.5 L 169 625.5 L 169.5 617 Z "/><path fill="rgb(0,127,0)" stroke="rgb(0,127,0)" stroke-width="1" opacity="1" d="M 422.5 672 L 423 674.5 L 422 674.5 L 422.5 672 Z "/><path fill="rgb(0,127,0)" stroke="rgb(0,127,0)" stroke-width="1" opacity="1" d="M 422.5 695 L 423 697.5 L 422 697.5 L 422.5 695 Z "/><path fill="rgb(0,127,0)" stroke="rgb(0,127,0)" stroke-width="1" opacity="1" d="M 484.5 832 L 488 832.5 L 484.5 833 L 484.5 832 Z "/><path fill="rgb(0,127,0)" stroke="rgb(0,127,0)" stroke-width="1" opacity="1" d="M 512.5 832 L 515 832.5 L 512.5 833 L 512.5 832 Z "/><path fill="rgb(0,127,0)" stroke="rgb(0,127,0)" stroke-width="1" opacity="1" d="M 341.5 919 L 342 923.5 L 341 923.5 L 341.5 919 Z "/><path fill="rgb(0,127,0)" stroke="rgb(0,127,0)" stroke-width="1" opacity="1" d="M 358.5 945 L 362 945.5 L 358.5 946 L 358.5 945 Z "/><path fill="rgb(0,127,127)" stroke="rgb(0,127,127)" stroke-width="1" opacity="1" d="M 521.5 481 L 520.5 483 L 521.5 481 Z "/><path fill="rgb(0,127,127)" stroke="rgb(0,127,127)" stroke-width="1" opacity="1" d="M 643.5 637 L 642.5 639 L 643.5 637 Z "/><path fill="rgb(0,127,127)" stroke="rgb(0,127,127)" stroke-width="1" opacity="1" d="M 362.5 945 L 365 945.5 L 362.5 946 L 362.5 945 Z "/><path fill="rgb(127,127,127)" stroke="rgb(127,127,127)" stroke-width="1" opacity="1" d="M 735.5 80 L 739 80.5 L 735.5 81 L 735.5 80 Z "/><path fill="rgb(127,127,127)" stroke="rgb(127,127,127)" stroke-width="1" opacity="1" d="M 749.5 86 L 750.5 88 L 749.5 86 Z "/><path fill="rgb(127,127,127)" stroke="rgb(127,127,127)" stroke-width="1" opacity="1" d="M 648.5 182 L 649 183.5 L 642 189.5 Q 647.4 186.8 645.5 184 Q 646.8 186.3 648 183.5 L 648.5 182 Z "/><path fill="rgb(127,127,127)" stroke="rgb(127,127,127)" stroke-width="1" opacity="1" d="M 622.5 210 L 615.5 218 L 622.5 210 Z "/><path fill="rgb(127,127,127)" stroke="rgb(127,127,127)" stroke-width="1" opacity="1" d="M 872.5 211 L 871.5 213 L 872.5 211 Z "/><path fill="rgb(127,127,127)" stroke="rgb(127,127,127)" stroke-width="1" opacity="1" d="M 869.5 215 L 868.5 217 L 869.5 215 Z "/><path fill="rgb(127,127,127)" stroke="rgb(127,127,127)" stroke-width="1" opacity="1" d="M 861.5 225 L 860.5 227 L 861.5 225 Z "/><path fill="rgb(127,127,127)" stroke="rgb(127,127,127)" stroke-width="1" opacity="1" d="M 325.5 232 L 323.5 235 L 325.5 232 Z "/><path fill="rgb(127,127,127)" stroke="rgb(127,127,127)" stroke-width="1" opacity="1" d="M 855.5 232 L 853.5 235 L 855.5 232 Z "/><path fill="rgb(127,127,127)" stroke="rgb(127,127,127)" stroke-width="1" opacity="1" d="M 592.5 241 L 583.5 251 L 592.5 241 Z "/><path fill="rgb(127,127,127)" stroke="rgb(127,127,127)" stroke-width="1" opacity="1" d="M 319.5 243 L 320 247.5 L 319 247.5 L 319.5 243 Z "/><path fill="rgb(127,127,127)" stroke="rgb(127,127,127)" stroke-width="1" opacity="1" d="M 845.5 243 L 830.5 259 L 845.5 243 Z "/><path fill="rgb(127,127,127)" stroke="rgb(127,127,127)" stroke-width="1" opacity="1" d="M 323.5 256 L 324.5 258 L 323.5 256 Z "/><path fill="rgb(127,127,127)" stroke="rgb(127,127,127)" stroke-width="1" opacity="1" d="M 820.5 267 L 818.5 270 L 820.5 267 Z "/><path fill="rgb(127,127,127)" stroke="rgb(127,127,127)" stroke-width="1" opacity="1" d="M 562.5 272 L 554.5 281 L 562.5 272 Z "/><path fill="rgb(127,127,127)" stroke="rgb(127,127,127)" stroke-width="1" opacity="1" d="M 812.5 274 L 810.5 277 L 812.5 274 Z "/><path fill="rgb(127,127,127)" stroke="rgb(127,127,127)" stroke-width="1" opacity="1" d="M 912.5 277 L 913 279.5 L 912 279.5 L 912.5 277 Z "/><path fill="rgb(127,127,127)" stroke="rgb(127,127,127)" stroke-width="1" opacity="1" d="M 805.5 280 L 804.5 282 L 805.5 280 Z "/><path fill="rgb(127,127,127)" stroke="rgb(127,127,127)" stroke-width="1" opacity="1" d="M 799.5 285 L 798.5 287 L 799.5 285 Z "/><path fill="rgb(127,127,127)" stroke="rgb(127,127,127)" stroke-width="1" opacity="1" d="M 789.5 293 L 788.5 295 L 789.5 293 Z "/><path fill="rgb(127,127,127)" stroke="rgb(127,127,127)" stroke-width="1" opacity="1" d="M 532.5 303 L 523.5 313 L 532.5 303 Z "/><path fill="rgb(127,127,127)" stroke="rgb(127,127,127)" stroke-width="1" opacity="1" d="M 915.5 303 L 916 305.5 L 915 305.5 L 915.5 303 Z "/><path fill="rgb(127,127,127)" stroke="rgb(127,127,127)" stroke-width="1" opacity="1" d="M 916.5 314 L 917 317.5 L 916 317.5 L 916.5 314 Z "/><path fill="rgb(127,127,127)" stroke="rgb(127,127,127)" stroke-width="1" opacity="1" d="M 917.5 330 L 918 334.5 L 917 334.5 L 917.5 330 Z "/><path fill="rgb(127,127,127)" stroke="rgb(127,127,127)" stroke-width="1" opacity="1" d="M 196.5 331 L 199 331.5 L 196.5 332 L 196.5 331 Z "/><path fill="rgb(127,127,127)" stroke="rgb(127,127,127)" stroke-width="1" opacity="1" d="M 212.5 331 L 215 331.5 L 212.5 332 L 212.5 331 Z "/><path fill="rgb(127,127,127)" stroke="rgb(127,127,127)" stroke-width="1" opacity="1" d="M 505.5 331 L 496.5 341 L 505.5 331 Z "/><path fill="rgb(127,127,127)" stroke="rgb(127,127,127)" stroke-width="1" opacity="1" d="M 159.5 347 L 151.5 356 L 159.5 347 Z "/><path fill="rgb(127,127,127)" stroke="rgb(127,127,127)" stroke-width="1" opacity="1" d="M 251.5 347 L 252.5 349 L 251.5 347 Z "/><path fill="rgb(127,127,127)" stroke="rgb(127,127,127)" stroke-width="1" opacity="1" d="M 259.5 355 L 260.5 357 L 259.5 355 Z "/><path fill="rgb(127,127,127)" stroke="rgb(127,127,127)" stroke-width="1" opacity="1" d="M 428.5 366 L 427.5 368 L 428.5 366 Z "/><path fill="rgb(127,127,127)" stroke="rgb(127,127,127)" stroke-width="1" opacity="1" d="M 441.5 367 L 442 369.5 L 441 369.5 L 441.5 367 Z "/><path fill="rgb(127,127,127)" stroke="rgb(127,127,127)" stroke-width="1" opacity="1" d="M 424.5 369 L 423.5 371 L 424.5 369 Z "/><path fill="rgb(127,127,127)" stroke="rgb(127,127,127)" stroke-width="1" opacity="1" d="M 411.5 375 L 414 375.5 L 411.5 376 L 411.5 375 Z "/><path fill="rgb(127,127,127)" stroke="rgb(127,127,127)" stroke-width="1" opacity="1" d="M 541.5 377 L 542.5 379 L 541.5 377 Z "/><path fill="rgb(127,127,127)" stroke="rgb(127,127,127)" stroke-width="1" opacity="1" d="M 917.5 378 L 918 383.5 L 917 383.5 L 917.5 378 Z "/><path fill="rgb(127,127,127)" stroke="rgb(127,127,127)" stroke-width="1" opacity="1" d="M 550.5 384 L 551.5 386 L 550.5 384 Z "/><path fill="rgb(127,127,127)" stroke="rgb(127,127,127)" stroke-width="1" opacity="1" d="M 512.5 391 L 511.5 393 L 512.5 391 Z "/><path fill="rgb(127,127,127)" stroke="rgb(127,127,127)" stroke-width="1" opacity="1" d="M 444.5 392 L 445 394.5 L 444 394.5 L 444.5 392 Z "/><path fill="rgb(127,127,127)" stroke="rgb(127,127,127)" stroke-width="1" opacity="1" d="M 564.5 395 L 565.5 397 L 564.5 395 Z "/><path fill="rgb(127,127,127)" stroke="rgb(127,127,127)" stroke-width="1" opacity="1" d="M 824.5 395 L 825 397 L 823 396.5 L 824.5 395 Z "/><path fill="rgb(127,127,127)" stroke="rgb(127,127,127)" stroke-width="1" opacity="1" d="M 916.5 396 L 917 398.5 L 916 398.5 L 916.5 396 Z "/><path fill="rgb(127,127,127)" stroke="rgb(127,127,127)" stroke-width="1" opacity="1" d="M 505.5 400 L 504.5 402 L 505.5 400 Z "/><path fill="rgb(127,127,127)" stroke="rgb(127,127,127)" stroke-width="1" opacity="1" d="M 573.5 402 L 574.5 404 L 573.5 402 Z "/><path fill="rgb(127,127,127)" stroke="rgb(127,127,127)" stroke-width="1" opacity="1" d="M 819.5 403 L 820.5 405 L 819.5 403 Z "/><path fill="rgb(127,127,127)" stroke="rgb(127,127,127)" stroke-width="1" opacity="1" d="M 440.5 406 L 438.5 409 L 440.5 406 Z "/><path fill="rgb(127,127,127)" stroke="rgb(127,127,127)" stroke-width="1" opacity="1" d="M 915.5 407 L 916 409.5 L 915 409.5 L 915.5 407 Z "/><path fill="rgb(127,127,127)" stroke="rgb(127,127,127)" stroke-width="1" opacity="1" d="M 498.5 409 L 497.5 411 L 498.5 409 Z "/><path fill="rgb(127,127,127)" stroke="rgb(127,127,127)" stroke-width="1" opacity="1" d="M 587.5 413 L 588.5 415 L 587.5 413 Z "/><path fill="rgb(127,127,127)" stroke="rgb(127,127,127)" stroke-width="1" opacity="1" d="M 914.5 416 L 915 418.5 L 914 418.5 L 914.5 416 Z "/><path fill="rgb(127,127,127)" stroke="rgb(127,127,127)" stroke-width="1" opacity="1" d="M 491.5 418 L 490.5 420 L 491.5 418 Z "/><path fill="rgb(127,127,127)" stroke="rgb(127,127,127)" stroke-width="1" opacity="1" d="M 487.5 423 L 486.5 425 L 487.5 423 Z "/><path fill="rgb(127,127,127)" stroke="rgb(127,127,127)" stroke-width="1" opacity="1" d="M 483.5 427 L 482.5 429 L 483.5 427 Z "/><path fill="rgb(127,127,127)" stroke="rgb(127,127,127)" stroke-width="1" opacity="1" d="M 589.5 431 L 590.5 433 L 589.5 431 Z "/><path fill="rgb(127,127,127)" stroke="rgb(127,127,127)" stroke-width="1" opacity="1" d="M 610.5 431 L 611.5 433 L 610.5 431 Z "/><path fill="rgb(127,127,127)" stroke="rgb(127,127,127)" stroke-width="1" opacity="1" d="M 573.5 437 L 572.5 439 L 573.5 437 Z "/><path fill="rgb(127,127,127)" stroke="rgb(127,127,127)" stroke-width="1" opacity="1" d="M 598.5 438 L 599.5 440 L 598.5 438 Z "/><path fill="rgb(127,127,127)" stroke="rgb(127,127,127)" stroke-width="1" opacity="1" d="M 620.5 439 L 621.5 441 L 620.5 439 Z "/><path fill="rgb(127,127,127)" stroke="rgb(127,127,127)" stroke-width="1" opacity="1" d="M 147.5 440 L 148.5 442 L 147.5 440 Z "/><path fill="rgb(127,127,127)" stroke="rgb(127,127,127)" stroke-width="1" opacity="1" d="M 603.5 442 L 604.5 444 L 603.5 442 Z "/><path fill="rgb(127,127,127)" stroke="rgb(127,127,127)" stroke-width="1" opacity="1" d="M 150.5 444 L 151.5 446 L 150.5 444 Z "/><path fill="rgb(127,127,127)" stroke="rgb(127,127,127)" stroke-width="1" opacity="1" d="M 564.5 444 L 563.5 446 L 564.5 444 Z "/><path fill="rgb(127,127,127)" stroke="rgb(127,127,127)" stroke-width="1" opacity="1" d="M 559.5 448 L 558.5 450 L 559.5 448 Z "/><path fill="rgb(127,127,127)" stroke="rgb(127,127,127)" stroke-width="1" opacity="1" d="M 617.5 453 L 618.5 455 L 617.5 453 Z "/><path fill="rgb(127,127,127)" stroke="rgb(127,127,127)" stroke-width="1" opacity="1" d="M 163.5 456 L 164.5 458 L 163.5 456 Z "/><path fill="rgb(127,127,127)" stroke="rgb(127,127,127)" stroke-width="1" opacity="1" d="M 548.5 457 L 547.5 459 L 548.5 457 Z "/><path fill="rgb(127,127,127)" stroke="rgb(127,127,127)" stroke-width="1" opacity="1" d="M 542.5 462 L 541.5 464 L 542.5 462 Z "/><path fill="rgb(127,127,127)" stroke="rgb(127,127,127)" stroke-width="1" opacity="1" d="M 535.5 468 L 533.5 471 L 535.5 468 Z "/><path fill="rgb(127,127,127)" stroke="rgb(127,127,127)" stroke-width="1" opacity="1" d="M 774.5 468 L 773.5 470 L 774.5 468 Z "/><path fill="rgb(127,127,127)" stroke="rgb(127,127,127)" stroke-width="1" opacity="1" d="M 213.5 469 L 216 469.5 L 213.5 470 L 213.5 469 Z "/><path fill="rgb(127,127,127)" stroke="rgb(127,127,127)" stroke-width="1" opacity="1" d="M 526.5 476 L 522.5 481 L 526.5 476 Z "/><path fill="rgb(127,127,127)" stroke="rgb(127,127,127)" stroke-width="1" opacity="1" d="M 762.5 483 L 761.5 485 L 762.5 483 Z "/><path fill="rgb(127,127,127)" stroke="rgb(127,127,127)" stroke-width="1" opacity="1" d="M 757.5 489 L 756.5 491 L 757.5 489 Z "/><path fill="rgb(127,127,127)" stroke="rgb(127,127,127)" stroke-width="1" opacity="1" d="M 752.5 495 L 751.5 497 L 752.5 495 Z "/><path fill="rgb(127,127,127)" stroke="rgb(127,127,127)" stroke-width="1" opacity="1" d="M 746.5 502 L 745.5 504 L 746.5 502 Z "/><path fill="rgb(127,127,127)" stroke="rgb(127,127,127)" stroke-width="1" opacity="1" d="M 495.5 507 L 492.5 511 L 495.5 507 Z "/><path fill="rgb(127,127,127)" stroke="rgb(127,127,127)" stroke-width="1" opacity="1" d="M 740.5 509 L 738.5 512 L 740.5 509 Z "/><path fill="rgb(127,127,127)" stroke="rgb(127,127,127)" stroke-width="1" opacity="1" d="M 487.5 516 L 486.5 518 L 487.5 516 Z "/><path fill="rgb(127,127,127)" stroke="rgb(127,127,127)" stroke-width="1" opacity="1" d="M 750.5 517 L 749.5 519 L 750.5 517 Z "/><path fill="rgb(127,127,127)" stroke="rgb(127,127,127)" stroke-width="1" opacity="1" d="M 731.5 519 L 728.5 523 L 731.5 519 Z "/><path fill="rgb(127,127,127)" stroke="rgb(127,127,127)" stroke-width="1" opacity="1" d="M 481.5 523 L 480.5 525 L 481.5 523 Z "/><path fill="rgb(127,127,127)" stroke="rgb(127,127,127)" stroke-width="1" opacity="1" d="M 477.5 528 L 476.5 530 L 477.5 528 Z "/><path fill="rgb(127,127,127)" stroke="rgb(127,127,127)" stroke-width="1" opacity="1" d="M 718.5 533 L 713.5 539 L 718.5 533 Z "/><path fill="rgb(127,127,127)" stroke="rgb(127,127,127)" stroke-width="1" opacity="1" d="M 727.5 546 L 726.5 548 L 727.5 546 Z "/><path fill="rgb(127,127,127)" stroke="rgb(127,127,127)" stroke-width="1" opacity="1" d="M 212.5 547 L 223.5 559 L 212.5 547 Z "/><path fill="rgb(127,127,127)" stroke="rgb(127,127,127)" stroke-width="1" opacity="1" d="M 722.5 552 L 721.5 554 L 722.5 552 Z "/><path fill="rgb(127,127,127)" stroke="rgb(127,127,127)" stroke-width="1" opacity="1" d="M 717.5 558 L 715.5 561 L 717.5 558 Z "/><path fill="rgb(127,127,127)" stroke="rgb(127,127,127)" stroke-width="1" opacity="1" d="M 232.5 566 L 233.5 568 L 232.5 566 Z "/><path fill="rgb(127,127,127)" stroke="rgb(127,127,127)" stroke-width="1" opacity="1" d="M 710.5 566 L 709.5 568 L 710.5 566 Z "/><path fill="rgb(127,127,127)" stroke="rgb(127,127,127)" stroke-width="1" opacity="1" d="M 238.5 571 L 239.5 573 L 238.5 571 Z "/><path fill="rgb(127,127,127)" stroke="rgb(127,127,127)" stroke-width="1" opacity="1" d="M 677.5 574 L 668.5 584 L 677.5 574 Z "/><path fill="rgb(127,127,127)" stroke="rgb(127,127,127)" stroke-width="1" opacity="1" d="M 243.5 575 L 244.5 577 L 243.5 575 Z "/><path fill="rgb(127,127,127)" stroke="rgb(127,127,127)" stroke-width="1" opacity="1" d="M 702.5 575 L 700.5 578 L 702.5 575 Z "/><path fill="rgb(127,127,127)" stroke="rgb(127,127,127)" stroke-width="1" opacity="1" d="M 693.5 585 L 689.5 590 L 693.5 585 Z "/><path fill="rgb(127,127,127)" stroke="rgb(127,127,127)" stroke-width="1" opacity="1" d="M 170.5 594 L 171 597.5 L 170 597.5 L 170.5 594 Z "/><path fill="rgb(127,127,127)" stroke="rgb(127,127,127)" stroke-width="1" opacity="1" d="M 653.5 597 L 647.5 604 L 653.5 597 Z "/><path fill="rgb(127,127,127)" stroke="rgb(127,127,127)" stroke-width="1" opacity="1" d="M 677.5 602 L 669.5 611 L 677.5 602 Z "/><path fill="rgb(127,127,127)" stroke="rgb(127,127,127)" stroke-width="1" opacity="1" d="M 169.5 608 L 170 615.5 L 169 615.5 L 169.5 608 Z "/><path fill="rgb(127,127,127)" stroke="rgb(127,127,127)" stroke-width="1" opacity="1" d="M 299.5 615 L 300.5 617 L 299.5 615 Z "/><path fill="rgb(127,127,127)" stroke="rgb(127,127,127)" stroke-width="1" opacity="1" d="M 634.5 615 L 629.5 621 L 634.5 615 Z "/><path fill="rgb(127,127,127)" stroke="rgb(127,127,127)" stroke-width="1" opacity="1" d="M 314.5 626 L 315.5 628 L 314.5 626 Z "/><path fill="rgb(127,127,127)" stroke="rgb(127,127,127)" stroke-width="1" opacity="1" d="M 169.5 627 L 170 636.5 L 169 636.5 L 169.5 627 Z "/><path fill="rgb(127,127,127)" stroke="rgb(127,127,127)" stroke-width="1" opacity="1" d="M 319.5 630 L 320.5 632 L 319.5 630 Z "/><path fill="rgb(127,127,127)" stroke="rgb(127,127,127)" stroke-width="1" opacity="1" d="M 617.5 631 L 612.5 637 L 617.5 631 Z "/><path fill="rgb(127,127,127)" stroke="rgb(127,127,127)" stroke-width="1" opacity="1" d="M 236.5 633 L 237.5 635 L 236.5 633 Z "/><path fill="rgb(127,127,127)" stroke="rgb(127,127,127)" stroke-width="1" opacity="1" d="M 325.5 635 L 326.5 637 L 325.5 635 Z "/><path fill="rgb(127,127,127)" stroke="rgb(127,127,127)" stroke-width="1" opacity="1" d="M 241.5 636 L 243.5 639 L 241.5 636 Z "/><path fill="rgb(127,127,127)" stroke="rgb(127,127,127)" stroke-width="1" opacity="1" d="M 639.5 641 L 618.5 663 L 639.5 641 Z "/><path fill="rgb(127,127,127)" stroke="rgb(127,127,127)" stroke-width="1" opacity="1" d="M 250.5 644 L 252.5 647 L 250.5 644 Z "/><path fill="rgb(127,127,127)" stroke="rgb(127,127,127)" stroke-width="1" opacity="1" d="M 601.5 646 L 596.5 652 L 601.5 646 Z "/><path fill="rgb(127,127,127)" stroke="rgb(127,127,127)" stroke-width="1" opacity="1" d="M 170.5 648 L 171 650.5 L 170 650.5 L 170.5 648 Z "/><path fill="rgb(127,127,127)" stroke="rgb(127,127,127)" stroke-width="1" opacity="1" d="M 344.5 654 L 346.5 657 L 344.5 654 Z "/><path fill="rgb(127,127,127)" stroke="rgb(127,127,127)" stroke-width="1" opacity="1" d="M 171.5 657 L 172 659.5 L 171 659.5 L 171.5 657 Z "/><path fill="rgb(127,127,127)" stroke="rgb(127,127,127)" stroke-width="1" opacity="1" d="M 264.5 657 L 280.5 674 L 264.5 657 Z "/><path fill="rgb(127,127,127)" stroke="rgb(127,127,127)" stroke-width="1" opacity="1" d="M 257.5 659 L 258.5 661 L 257.5 659 Z "/><path fill="rgb(127,127,127)" stroke="rgb(127,127,127)" stroke-width="1" opacity="1" d="M 582.5 664 L 576.5 671 L 582.5 664 Z "/><path fill="rgb(127,127,127)" stroke="rgb(127,127,127)" stroke-width="1" opacity="1" d="M 422.5 666 L 423 670.5 L 422 670.5 L 422.5 666 Z "/><path fill="rgb(127,127,127)" stroke="rgb(127,127,127)" stroke-width="1" opacity="1" d="M 809.5 673 L 808.5 675 L 809.5 673 Z "/><path fill="rgb(127,127,127)" stroke="rgb(127,127,127)" stroke-width="1" opacity="1" d="M 289.5 683 L 290.5 685 L 289.5 683 Z "/><path fill="rgb(127,127,127)" stroke="rgb(127,127,127)" stroke-width="1" opacity="1" d="M 800.5 684 L 798.5 687 L 800.5 684 Z "/><path fill="rgb(127,127,127)" stroke="rgb(127,127,127)" stroke-width="1" opacity="1" d="M 295.5 690 L 296.5 692 L 295.5 690 Z "/><path fill="rgb(127,127,127)" stroke="rgb(127,127,127)" stroke-width="1" opacity="1" d="M 794.5 691 L 791.5 695 L 794.5 691 Z "/><path fill="rgb(127,127,127)" stroke="rgb(127,127,127)" stroke-width="1" opacity="1" d="M 300.5 696 L 301.5 698 L 300.5 696 Z "/><path fill="rgb(127,127,127)" stroke="rgb(127,127,127)" stroke-width="1" opacity="1" d="M 422.5 699 L 423 704.5 L 422 704.5 L 422.5 699 Z "/><path fill="rgb(127,127,127)" stroke="rgb(127,127,127)" stroke-width="1" opacity="1" d="M 304.5 701 L 305.5 703 L 304.5 701 Z "/><path fill="rgb(127,127,127)" stroke="rgb(127,127,127)" stroke-width="1" opacity="1" d="M 577.5 704 L 569.5 713 L 577.5 704 Z "/><path fill="rgb(127,127,127)" stroke="rgb(127,127,127)" stroke-width="1" opacity="1" d="M 782.5 704 L 765.5 722 L 782.5 704 Z "/><path fill="rgb(127,127,127)" stroke="rgb(127,127,127)" stroke-width="1" opacity="1" d="M 307.5 705 L 308.5 707 L 307.5 705 Z "/><path fill="rgb(127,127,127)" stroke="rgb(127,127,127)" stroke-width="1" opacity="1" d="M 537.5 709 L 533.5 714 L 537.5 709 Z "/><path fill="rgb(127,127,127)" stroke="rgb(127,127,127)" stroke-width="1" opacity="1" d="M 423.5 714 L 424 716.5 L 423 716.5 L 423.5 714 Z "/><path fill="rgb(127,127,127)" stroke="rgb(127,127,127)" stroke-width="1" opacity="1" d="M 524.5 723 L 520.5 728 L 524.5 723 Z "/><path fill="rgb(127,127,127)" stroke="rgb(127,127,127)" stroke-width="1" opacity="1" d="M 556.5 726 L 552.5 731 L 556.5 726 Z "/><path fill="rgb(127,127,127)" stroke="rgb(127,127,127)" stroke-width="1" opacity="1" d="M 754.5 731 L 752.5 734 L 754.5 731 Z "/><path fill="rgb(127,127,127)" stroke="rgb(127,127,127)" stroke-width="1" opacity="1" d="M 512.5 736 L 509.5 740 L 512.5 736 Z "/><path fill="rgb(127,127,127)" stroke="rgb(127,127,127)" stroke-width="1" opacity="1" d="M 746.5 738 L 745.5 740 L 746.5 738 Z "/><path fill="rgb(127,127,127)" stroke="rgb(127,127,127)" stroke-width="1" opacity="1" d="M 544.5 739 L 542.5 742 L 544.5 739 Z "/><path fill="rgb(127,127,127)" stroke="rgb(127,127,127)" stroke-width="1" opacity="1" d="M 740.5 743 L 739.5 745 L 740.5 743 Z "/><path fill="rgb(127,127,127)" stroke="rgb(127,127,127)" stroke-width="1" opacity="1" d="M 503.5 746 L 502.5 748 L 503.5 746 Z "/><path fill="rgb(127,127,127)" stroke="rgb(127,127,127)" stroke-width="1" opacity="1" d="M 535.5 749 L 533.5 752 L 535.5 749 Z "/><path fill="rgb(127,127,127)" stroke="rgb(127,127,127)" stroke-width="1" opacity="1" d="M 497.5 753 L 496.5 755 L 497.5 753 Z "/><path fill="rgb(127,127,127)" stroke="rgb(127,127,127)" stroke-width="1" opacity="1" d="M 529.5 756 L 528.5 758 L 529.5 756 Z "/><path fill="rgb(127,127,127)" stroke="rgb(127,127,127)" stroke-width="1" opacity="1" d="M 382.5 758 L 383 760.5 L 382 760.5 L 382.5 758 Z "/><path fill="rgb(127,127,127)" stroke="rgb(127,127,127)" stroke-width="1" opacity="1" d="M 718.5 760 L 717.5 762 L 718.5 760 Z "/><path fill="rgb(127,127,127)" stroke="rgb(127,127,127)" stroke-width="1" opacity="1" d="M 212.5 762 L 213.5 764 L 212.5 762 Z "/><path fill="rgb(127,127,127)" stroke="rgb(127,127,127)" stroke-width="1" opacity="1" d="M 524.5 762 L 523.5 764 L 524.5 762 Z "/><path fill="rgb(127,127,127)" stroke="rgb(127,127,127)" stroke-width="1" opacity="1" d="M 487.5 765 L 486.5 767 L 487.5 765 Z "/><path fill="rgb(127,127,127)" stroke="rgb(127,127,127)" stroke-width="1" opacity="1" d="M 215.5 766 L 216.5 768 L 215.5 766 Z "/><path fill="rgb(127,127,127)" stroke="rgb(127,127,127)" stroke-width="1" opacity="1" d="M 520.5 767 L 519.5 769 L 520.5 767 Z "/><path fill="rgb(127,127,127)" stroke="rgb(127,127,127)" stroke-width="1" opacity="1" d="M 484.5 769 L 483.5 771 L 484.5 769 Z "/><path fill="rgb(127,127,127)" stroke="rgb(127,127,127)" stroke-width="1" opacity="1" d="M 220.5 772 L 221.5 774 L 220.5 772 Z "/><path fill="rgb(127,127,127)" stroke="rgb(127,127,127)" stroke-width="1" opacity="1" d="M 512.5 777 L 511.5 779 L 512.5 777 Z "/><path fill="rgb(127,127,127)" stroke="rgb(127,127,127)" stroke-width="1" opacity="1" d="M 240.5 792 L 242.5 795 L 240.5 792 Z "/><path fill="rgb(127,127,127)" stroke="rgb(127,127,127)" stroke-width="1" opacity="1" d="M 247.5 798 L 248.5 800 L 247.5 798 Z "/><path fill="rgb(127,127,127)" stroke="rgb(127,127,127)" stroke-width="1" opacity="1" d="M 417.5 828 L 416.5 830 L 417.5 828 Z "/><path fill="rgb(127,127,127)" stroke="rgb(127,127,127)" stroke-width="1" opacity="1" d="M 530.5 831 L 533 831.5 L 530.5 832 L 530.5 831 Z "/><path fill="rgb(127,127,127)" stroke="rgb(127,127,127)" stroke-width="1" opacity="1" d="M 479.5 832 L 484 832.5 L 479.5 833 L 479.5 832 Z "/><path fill="rgb(127,127,127)" stroke="rgb(127,127,127)" stroke-width="1" opacity="1" d="M 516.5 832 L 521 832.5 L 516.5 833 L 516.5 832 Z "/><path fill="rgb(127,127,127)" stroke="rgb(127,127,127)" stroke-width="1" opacity="1" d="M 411.5 836 L 410.5 838 L 411.5 836 Z "/><path fill="rgb(127,127,127)" stroke="rgb(127,127,127)" stroke-width="1" opacity="1" d="M 408.5 840 L 407.5 842 L 408.5 840 Z "/><path fill="rgb(127,127,127)" stroke="rgb(127,127,127)" stroke-width="1" opacity="1" d="M 405.5 844 L 404.5 846 L 405.5 844 Z "/><path fill="rgb(127,127,127)" stroke="rgb(127,127,127)" stroke-width="1" opacity="1" d="M 402.5 848 L 401.5 850 L 402.5 848 Z "/><path fill="rgb(127,127,127)" stroke="rgb(127,127,127)" stroke-width="1" opacity="1" d="M 393.5 860 L 392.5 862 L 393.5 860 Z "/><path fill="rgb(127,127,127)" stroke="rgb(127,127,127)" stroke-width="1" opacity="1" d="M 339.5 896 L 340 898.5 L 339 898.5 L 339.5 896 Z "/><path fill="rgb(127,127,127)" stroke="rgb(127,127,127)" stroke-width="1" opacity="1" d="M 340.5 906 L 341 908.5 L 340 908.5 L 340.5 906 Z "/><path fill="rgb(127,127,127)" stroke="rgb(127,127,127)" stroke-width="1" opacity="1" d="M 341.5 926 L 342 935.5 L 341 935.5 L 341.5 926 Z "/><path fill="rgb(127,127,127)" stroke="rgb(127,127,127)" stroke-width="1" opacity="1" d="M 354.5 945 L 357 945.5 L 354.5 946 L 354.5 945 Z "/><path fill="rgb(127,254,127)" stroke="rgb(127,254,127)" stroke-width="1" opacity="1" d="M 614.5 218 L 613.5 220 L 614.5 218 Z "/><path fill="rgb(127,254,127)" stroke="rgb(127,254,127)" stroke-width="1" opacity="1" d="M 582.5 251 L 580.5 254 L 582.5 251 Z "/><path fill="rgb(127,254,127)" stroke="rgb(127,254,127)" stroke-width="1" opacity="1" d="M 553.5 281 L 551.5 284 L 553.5 281 Z "/><path fill="rgb(127,254,127)" stroke="rgb(127,254,127)" stroke-width="1" opacity="1" d="M 522.5 313 L 520.5 316 L 522.5 313 Z "/><path fill="rgb(127,254,127)" stroke="rgb(127,254,127)" stroke-width="1" opacity="1" d="M 917.5 327 L 918 329.5 L 917 329.5 L 917.5 327 Z "/><path fill="rgb(127,254,127)" stroke="rgb(127,254,127)" stroke-width="1" opacity="1" d="M 495.5 341 L 494.5 343 L 495.5 341 Z "/><path fill="rgb(127,254,127)" stroke="rgb(127,254,127)" stroke-width="1" opacity="1" d="M 274.5 375 L 367 375.5 L 274.5 376 L 274.5 375 Z "/><path fill="rgb(127,254,127)" stroke="rgb(127,254,127)" stroke-width="1" opacity="1" d="M 368.5 375 L 406 375.5 L 368.5 376 L 368.5 375 Z "/><path fill="rgb(127,254,127)" stroke="rgb(127,254,127)" stroke-width="1" opacity="1" d="M 720.5 531 L 719.5 533 L 720.5 531 Z "/><path fill="rgb(127,254,127)" stroke="rgb(127,254,127)" stroke-width="1" opacity="1" d="M 667.5 584 L 666.5 586 L 667.5 584 Z "/><path fill="rgb(127,254,127)" stroke="rgb(127,254,127)" stroke-width="1" opacity="1" d="M 646.5 604 L 645.5 606 L 646.5 604 Z "/><path fill="rgb(127,254,127)" stroke="rgb(127,254,127)" stroke-width="1" opacity="1" d="M 575.5 671 L 572.5 675 L 575.5 671 Z "/><path fill="rgb(127,254,127)" stroke="rgb(127,254,127)" stroke-width="1" opacity="1" d="M 784.5 702 L 783.5 704 L 784.5 702 Z "/><path fill="rgb(127,254,127)" stroke="rgb(127,254,127)" stroke-width="1" opacity="1" d="M 568.5 713 L 567.5 715 L 568.5 713 Z "/><path fill="rgb(254,254,254)" stroke="rgb(254,254,254)" stroke-width="1" opacity="1" d="M 0 0 L 1024 0 L 1024 1024 L 0 1024 L 0 0 Z M 735 80 L 392 206 L 368 216 L 333 228 L 326 232 Q 320 236 319 244 Q 319 252 323 257 L 329 261 L 437 315 L 443 314 L 461 303 L 646 185 L 648 184 L 488 350 L 483 361 L 479 385 L 469 425 Q 469 430 473 432 Q 480 433 483 429 L 530 370 L 535 372 L 622 441 L 631 446 Q 642 448 649 444 L 654 439 L 659 426 L 753 103 Q 755 92 751 88 Q 747 80 735 80 Z M 890 183 Q 874 213 852 237 Q 822 270 786 297 Q 743 330 697 360 L 691 370 L 672 437 L 666 447 Q 658 457 643 460 L 633 460 L 623 457 L 586 428 L 528 475 Q 484 513 453 564 L 441 588 L 433 609 L 425 641 L 424 654 L 423 655 L 423 665 L 422 666 L 422 706 L 423 707 L 423 717 L 424 718 L 425 733 L 433 770 L 441 792 L 440 797 L 432 809 L 389 866 L 367 898 Q 368 900 365 899 L 357 866 L 341 821 L 329 781 L 321 761 Q 308 731 291 706 Q 267 669 239 636 L 237 632 L 255 648 Q 294 683 323 728 Q 336 749 345 774 L 352 796 L 358 825 Q 368 812 374 796 L 378 785 L 383 761 L 383 732 L 376 704 Q 365 677 347 657 Q 333 640 315 626 L 260 588 L 230 564 L 203 537 Q 194 526 190 512 L 182 531 L 176 555 L 172 578 L 172 584 L 171 585 L 170 606 L 169 607 L 169 638 L 170 639 L 170 651 L 171 652 L 172 667 L 178 694 L 184 712 L 201 747 L 215 767 L 230 783 L 230 784 L 232 784 L 249 800 L 277 819 L 310 834 L 325 838 L 327 842 L 331 854 L 337 880 L 338 891 L 339 892 L 339 900 L 340 901 L 340 910 L 341 911 L 341 936 L 343 941 L 349 945 Q 353 944 355 946 L 377 946 L 383 944 L 390 937 Q 421 870 457 809 L 488 765 L 539 708 Q 601 646 666 587 Q 712 543 754 495 Q 791 451 821 401 L 823 400 Q 791 468 746 524 L 699 580 L 617 665 L 614 666 L 614 668 Q 572 708 533 752 Q 501 789 474 832 L 479 833 L 522 833 L 523 832 L 533 832 L 534 831 L 556 829 L 593 821 L 630 809 Q 671 794 705 771 Q 736 750 764 724 Q 832 660 873 570 L 882 549 L 896 509 L 906 471 L 915 419 L 916 401 L 917 400 L 917 387 L 918 386 L 918 328 L 917 327 L 917 314 L 916 313 L 916 303 L 915 302 L 913 278 L 904 230 L 897 204 L 890 183 Z M 197 331 L 178 336 L 160 347 Q 141 362 135 391 L 135 411 L 137 420 Q 141 434 150 445 Q 165 464 195 470 L 216 470 L 225 468 Q 239 464 249 456 Q 260 447 267 435 L 272 424 L 272 420 L 414 420 Q 435 416 446 402 L 445 401 L 445 393 L 444 392 L 441 361 L 441 358 L 422 372 L 411 376 L 408 375 L 274 375 L 273 376 L 262 358 Q 251 344 234 336 L 216 331 L 197 331 Z "/></svg>